<svg version="1.1" xmlns="http://www.w3.org/2000/svg" viewBox="0 0 1916 621" width="1916" height="621">
  <!-- svg-source:excalidraw -->
  
  <defs>
    <style class="style-fonts">
      @font-face {
        font-family: "Virgil";
        src: url("https://excalidraw.com/Virgil.woff2");
      }
      @font-face {
        font-family: "Cascadia";
        src: url("https://excalidraw.com/Cascadia.woff2");
      }
      @font-face {
        font-family: "Assistant";
        src: url("https://excalidraw.com/Assistant-Regular.woff2");
      }
    </style>
    
  </defs>
  <rect x="0" y="0" width="1916" height="621" fill="#ffffff"></rect><g stroke-linecap="round" transform="translate(677 74) rotate(0 316.5 233.5)"><path d="M32 0 C233.35 0.16, 434.62 0.93, 601 0 M32 0 C250.58 0.45, 469.79 -0.01, 601 0 M601 0 C621.53 -1.21, 632.55 9.26, 633 32 M601 0 C621.82 0.83, 631.41 11.58, 633 32 M633 32 C629.9 160.37, 631.32 290.24, 633 435 M633 32 C633.77 176.13, 633.88 320.5, 633 435 M633 435 C632.06 456.97, 621.48 468.37, 601 467 M633 435 C631.92 456.15, 623.62 464.76, 601 467 M601 467 C479.26 469.25, 357.38 468.34, 32 467 M601 467 C440.04 464.52, 278.74 465.04, 32 467 M32 467 C10.38 465.69, -1.84 455.66, 0 435 M32 467 C10 465.57, -1.33 457.76, 0 435 M0 435 C-1.17 298.44, -3.04 159.2, 0 32 M0 435 C-1.24 291.72, -0.98 149.04, 0 32 M0 32 C-0.88 9.43, 8.99 1.35, 32 0 M0 32 C1.72 10.7, 9.72 1.37, 32 0" stroke="#1e1e1e" stroke-width="2" fill="none"></path></g><g stroke-linecap="round" transform="translate(1432 107) rotate(0 111.5 36.5)"><path d="M4.86 4.22 C4.86 4.22, 4.86 4.22, 4.86 4.22 M4.86 4.22 C4.86 4.22, 4.86 4.22, 4.86 4.22 M0.4 21.55 C5.84 15.18, 12.85 4.53, 18.77 0.41 M0.4 21.55 C7.92 13.26, 13.72 6.71, 18.77 0.41 M0.53 33.59 C8.63 26.04, 15.19 14.49, 29.4 0.38 M0.53 33.59 C8.7 25.19, 17.55 14.8, 29.4 0.38 M0.01 46.38 C12.64 34.06, 24.06 19.41, 40.03 0.35 M0.01 46.38 C12.39 31.99, 23.54 18.32, 40.03 0.35 M0.14 58.42 C19.28 35.45, 41.51 11.24, 50.66 0.31 M0.14 58.42 C13.37 43.48, 25.19 30.15, 50.66 0.31 M3.56 66.69 C24.13 41.99, 40.93 20.51, 61.29 0.28 M3.56 66.69 C16.36 52.64, 27.84 38.33, 61.29 0.28 M9.59 71.94 C30.17 50.95, 48.53 28.4, 71.92 0.24 M9.59 71.94 C28.02 50.67, 47.86 28.49, 71.92 0.24 M18.91 73.41 C44.59 45.93, 67.21 21.01, 82.55 0.21 M18.91 73.41 C39.04 51.67, 58.62 28.25, 82.55 0.21 M29.54 73.38 C53.81 48.24, 76.71 23.92, 93.18 0.17 M29.54 73.38 C52.19 46.06, 76.33 20.27, 93.18 0.17 M40.17 73.35 C53.59 59.55, 68.2 42.56, 103.81 0.14 M40.17 73.35 C60.67 49.62, 82.46 25.9, 103.81 0.14 M50.8 73.31 C74.46 45.66, 95.46 20.31, 114.44 0.1 M50.8 73.31 C74.38 45.01, 99.35 18.71, 114.44 0.1 M61.43 73.28 C85.25 45.24, 110.88 14.15, 125.07 0.07 M61.43 73.28 C85.88 47.56, 107.66 19.6, 125.07 0.07 M72.06 73.24 C89.83 52.43, 110.05 31.85, 135.04 0.79 M72.06 73.24 C89.83 52.41, 107.03 31.97, 135.04 0.79 M82.69 73.21 C98.2 57.03, 112.02 38.71, 145.67 0.76 M82.69 73.21 C106.93 45.56, 130.65 17.13, 145.67 0.76 M93.32 73.17 C110.76 53.29, 129.2 32.79, 156.3 0.72 M93.32 73.17 C110.22 53.85, 125.17 35.49, 156.3 0.72 M103.95 73.14 C121.04 54.46, 134.94 36.26, 166.93 0.69 M103.95 73.14 C123.93 49.56, 144.54 27.9, 166.93 0.69 M113.93 73.86 C138.01 44.31, 160.6 16.46, 177.56 0.65 M113.93 73.86 C133.58 50.91, 153.22 27.23, 177.56 0.65 M124.56 73.82 C141.55 54.15, 154.77 38.69, 188.19 0.62 M124.56 73.82 C138.43 57.95, 149.99 44.64, 188.19 0.62 M135.19 73.79 C155.15 51.35, 175.04 24.23, 198.82 0.58 M135.19 73.79 C151.67 55.29, 167.68 35.63, 198.82 0.58 M145.82 73.76 C162.09 58.14, 173.23 41.25, 208.8 1.3 M145.82 73.76 C170.15 46.73, 194.77 17.71, 208.8 1.3 M156.45 73.72 C172.1 57.1, 184.54 40.42, 217.46 3.53 M156.45 73.72 C176.93 50.18, 199.23 25.2, 217.46 3.53 M167.08 73.69 C177.61 60.11, 187.61 47.61, 221.53 11.05 M167.08 73.69 C185.44 51.54, 202.94 30.13, 221.53 11.05 M177.71 73.65 C190.26 57.54, 207.33 43.09, 222.97 21.58 M177.71 73.65 C189.23 60.8, 199.36 48.7, 222.97 21.58 M188.34 73.62 C198.15 64.46, 205.14 53.25, 223.11 33.62 M188.34 73.62 C198.2 63.61, 207.73 51.52, 223.11 33.62 M198.97 73.58 C207.82 65.96, 213.25 56.34, 223.24 45.66 M198.97 73.58 C204.58 67.07, 209.73 63.13, 223.24 45.66 M211.56 71.28 C213.38 68.86, 216.56 64.13, 222.72 58.45 M211.56 71.28 C214.94 67.75, 218.63 62.7, 222.72 58.45 M4.3 68.21 C4.3 68.21, 4.3 68.21, 4.3 68.21 M4.3 68.21 C4.3 68.21, 4.3 68.21, 4.3 68.21 M21.63 72.67 C16.11 66.82, 8.6 60.35, 0.5 54.3 M21.63 72.67 C16.15 66.51, 9.38 62.33, 0.5 54.3 M33.67 72.54 C21.33 64.25, 11.4 51.54, 0.46 43.67 M33.67 72.54 C21.89 62.21, 9.22 51.51, 0.46 43.67 M45.71 72.41 C36.11 62.42, 27.74 53.89, 0.43 33.04 M45.71 72.41 C33.03 60.86, 22.02 51.19, 0.43 33.04 M58.51 72.93 C41.3 56.01, 20.35 39.59, 0.39 22.41 M58.51 72.93 C37.91 55.22, 17.65 37.38, 0.39 22.41 M70.55 72.8 C45.76 53.16, 23.26 33.59, 1.11 12.44 M70.55 72.8 C44.78 50.9, 21.23 28.47, 1.11 12.44 M82.59 72.66 C61.31 54.98, 38.81 33.18, 4.85 5.09 M82.59 72.66 C52.84 47.12, 23.26 21.06, 4.85 5.09 M94.63 72.53 C73.24 53.89, 50.94 32.22, 11.61 0.36 M94.63 72.53 C72.83 53.38, 49.93 34.14, 11.61 0.36 M106.67 72.4 C82.8 49.31, 57.82 29.66, 22.9 -0.43 M106.67 72.4 C81.94 49.85, 54.56 25.94, 22.9 -0.43 M119.46 72.92 C101.55 55.86, 79.08 37.43, 34.94 -0.56 M119.46 72.92 C92.07 49.46, 64.23 24.25, 34.94 -0.56 M131.51 72.79 C106.63 52.05, 84.58 31.69, 47.73 -0.04 M131.51 72.79 C100.39 46.05, 68.92 19.15, 47.73 -0.04 M143.55 72.65 C124.23 54.79, 102.55 36.58, 59.77 -0.17 M143.55 72.65 C120.83 53.23, 98.24 33.17, 59.77 -0.17 M155.59 72.52 C128.96 51.58, 106.41 31.26, 71.81 -0.3 M155.59 72.52 C132.42 50.96, 107.28 29.84, 71.81 -0.3 M167.63 72.39 C137.87 47.28, 106.31 20.78, 83.85 -0.44 M167.63 72.39 C142.82 52.1, 119.41 30.86, 83.85 -0.44 M180.42 72.91 C155 50.83, 125.77 23.92, 95.9 -0.57 M180.42 72.91 C150.57 46.64, 121.69 22.25, 95.9 -0.57 M192.46 72.78 C174.15 57.35, 153.02 38.93, 108.69 -0.05 M192.46 72.78 C160.75 46.38, 128.83 18.78, 108.69 -0.05 M204.5 72.64 C183.75 52.93, 160.4 33.98, 120.73 -0.18 M204.5 72.64 C178.1 49.32, 150.46 27.08, 120.73 -0.18 M214.28 70.54 C186.19 46.23, 156.53 19.84, 132.77 -0.31 M214.28 70.54 C183.98 43.51, 152.21 17.53, 132.77 -0.31 M220.28 65.16 C192.91 44.14, 167.2 20.66, 144.81 -0.45 M220.28 65.16 C191.26 41.79, 163.86 17.93, 144.81 -0.45 M222.51 56.5 C207.1 40.78, 191.8 28.16, 156.85 -0.58 M222.51 56.5 C198.11 34.33, 174.53 14.22, 156.85 -0.58 M223.23 46.52 C207.33 30.96, 187.49 15.54, 169.65 -0.06 M223.23 46.52 C207.96 31.13, 189.96 18.07, 169.65 -0.06 M223.2 35.89 C214.36 29.07, 204.19 17.2, 181.69 -0.19 M223.2 35.89 C214.23 28.88, 205.68 20.28, 181.69 -0.19 M223.17 25.26 C215.58 20.69, 209.45 10.7, 193.73 -0.32 M223.17 25.26 C212.3 16.61, 201.73 7.36, 193.73 -0.32 M223.13 14.63 C218.29 12.26, 216.1 5.1, 206.53 0.2 M223.13 14.63 C217.87 10.34, 214.04 6.82, 206.53 0.2" stroke="#a5d8ff" stroke-width="1" fill="none"></path><path d="M18.25 0 C62.4 0.29, 109.43 -1.66, 204.75 0 M18.25 0 C69.07 -1.51, 122.1 -1.44, 204.75 0 M204.75 0 C218.01 -0.91, 223.9 4.92, 223 18.25 M204.75 0 C215.95 -0.15, 224.01 6.03, 223 18.25 M223 18.25 C221.92 28.03, 223.62 38.6, 223 54.75 M223 18.25 C222.99 29.97, 223.46 43.31, 223 54.75 M223 54.75 C222.16 66.46, 217.37 73.05, 204.75 73 M223 54.75 C224.8 68.43, 216.83 75.28, 204.75 73 M204.75 73 C148.54 72.73, 92.39 72.27, 18.25 73 M204.75 73 C137.15 72.59, 70.77 73.86, 18.25 73 M18.25 73 C4.96 74.53, 0.01 66.73, 0 54.75 M18.25 73 C7.97 72.36, -0.28 66.71, 0 54.75 M0 54.75 C-0.42 42.46, 1.09 33, 0 18.25 M0 54.75 C-0.07 40.02, -0.65 26.96, 0 18.25 M0 18.25 C-1.22 7.65, 5.46 0.17, 18.25 0 M0 18.25 C-0.18 6.61, 7.03 -1.74, 18.25 0" stroke="#1e1e1e" stroke-width="2" fill="none"></path></g><g transform="translate(1493 131) rotate(0 50.5 12.5)"><text x="50.5" y="17.52" font-family="Virgil, Segoe UI Emoji" font-size="20px" fill="#1e1e1e" text-anchor="middle" style="white-space: pre;" direction="ltr" dominant-baseline="alphabetic">Bash shell</text></g><g stroke-linecap="round" transform="translate(1762 251) rotate(0 72 54)"><path d="M69.87 0.79 C80.35 -0.21, 92.8 2.37, 102.65 6 C112.5 9.63, 122.33 16.06, 128.95 22.57 C135.57 29.07, 140.42 36.95, 142.39 45.02 C144.37 53.1, 144.12 62.84, 140.78 71 C137.44 79.17, 130.61 88.15, 122.34 93.99 C114.07 99.83, 101.92 103.97, 91.15 106.06 C80.38 108.14, 68.41 108.19, 57.72 106.49 C47.02 104.79, 35.59 101.02, 26.98 95.87 C18.36 90.72, 10.51 83.46, 6.04 75.58 C1.56 67.71, -0.71 57.23, 0.13 48.64 C0.98 40.05, 5.01 31, 11.09 24.05 C17.16 17.1, 25.87 10.84, 36.59 6.93 C47.32 3.02, 68.33 1.56, 75.43 0.62 C82.54 -0.33, 79.51 0.33, 79.23 1.28 M85.67 1 C96.28 1.43, 109.05 5.46, 117.9 10.46 C126.74 15.46, 134.53 23.27, 138.76 31 C142.99 38.74, 143.94 48.19, 143.28 56.86 C142.62 65.53, 140.43 75.85, 134.81 83.03 C129.18 90.2, 119.32 95.59, 109.54 99.92 C99.76 104.26, 87.46 108.65, 76.1 109.03 C64.75 109.42, 51.75 105.65, 41.43 102.22 C31.1 98.78, 20.72 94.99, 14.16 88.42 C7.6 81.85, 3.8 71.17, 2.07 62.79 C0.33 54.41, 0.42 45.93, 3.75 38.15 C7.09 30.38, 14.13 21.97, 22.1 16.14 C30.06 10.3, 41.19 5.91, 51.53 3.15 C61.87 0.39, 78.6 -0.02, 84.14 -0.44 C89.69 -0.85, 84.77 -0.51, 84.8 0.66" stroke="#1e1e1e" stroke-width="2" fill="none"></path></g><g transform="translate(1798.0883117545686 279.81623381592647) rotate(0 36 25)"><text x="36" y="17.52" font-family="Virgil, Segoe UI Emoji" font-size="20px" fill="#1e1e1e" text-anchor="middle" style="white-space: pre;" direction="ltr" dominant-baseline="alphabetic">Barman</text><text x="36" y="42.519999999999996" font-family="Virgil, Segoe UI Emoji" font-size="20px" fill="#1e1e1e" text-anchor="middle" style="white-space: pre;" direction="ltr" dominant-baseline="alphabetic">CLI</text></g><g stroke-linecap="round" transform="translate(721 421) rotate(0 94 40)"><path d="M20 0 C57.16 -1.07, 99.6 0.4, 168 0 M20 0 C59.28 -0.6, 97.63 0.07, 168 0 M168 0 C182.78 0.51, 187.64 6.68, 188 20 M168 0 C183.31 0, 188.35 5.34, 188 20 M188 20 C187.42 33.09, 187.97 45.2, 188 60 M188 20 C187.91 28.66, 188.49 36.9, 188 60 M188 60 C187.53 73.14, 181.87 79.29, 168 80 M188 60 C187.24 74.4, 180.75 81.69, 168 80 M168 80 C130.9 77.2, 89.2 78.36, 20 80 M168 80 C130.96 80.64, 92.68 80.67, 20 80 M20 80 C7.11 80.66, -1.86 73.19, 0 60 M20 80 C4.76 80.58, 1.94 75.2, 0 60 M0 60 C-1.51 43.22, -1.46 29.06, 0 20 M0 60 C0.23 45.45, -0.49 30.79, 0 20 M0 20 C1.88 7.81, 8.57 -1.16, 20 0 M0 20 C-0.75 8.44, 4.38 -1.85, 20 0" stroke="#1e1e1e" stroke-width="2" fill="none"></path></g><g transform="translate(751 448.5) rotate(0 64 12.5)"><text x="64" y="17.52" font-family="Virgil, Segoe UI Emoji" font-size="20px" fill="#1e1e1e" text-anchor="middle" style="white-space: pre;" direction="ltr" dominant-baseline="alphabetic">HTTP Server</text></g><g stroke-linecap="round" transform="translate(316 394) rotate(0 122 67)"><path d="M9.05 64.84 C9.05 64.84, 9.05 64.84, 9.05 64.84 M9.05 64.84 C9.05 64.84, 9.05 64.84, 9.05 64.84 M11.8 73.86 C19.76 67.66, 23.77 60.98, 31.49 51.22 M11.8 73.86 C17.47 69.14, 20.18 64.06, 31.49 51.22 M18.5 78.36 C31.44 65.86, 42.29 52.62, 51.96 39.87 M18.5 78.36 C28.3 66.86, 36.98 56.99, 51.96 39.87 M25.85 82.09 C42.04 64.88, 60.5 43.38, 72.43 28.51 M25.85 82.09 C42.83 63.03, 58.74 43.47, 72.43 28.51 M33.2 85.83 C46 69.37, 59.89 54.75, 92.24 17.91 M33.2 85.83 C47.58 67.61, 63.86 50.47, 92.24 17.91 M40.55 89.57 C64.01 64.13, 83.71 37.94, 111.4 8.06 M40.55 89.57 C65.8 62.18, 91.18 33.37, 111.4 8.06 M47.24 94.07 C70.84 63.7, 96.88 34.86, 124 5.77 M47.24 94.07 C74.21 62.46, 103.31 29.96, 124 5.77 M54.59 97.81 C78.88 73.11, 101.97 44.61, 133.32 7.24 M54.59 97.81 C83.55 64.82, 112.81 30.13, 133.32 7.24 M61.94 101.54 C84.83 76.75, 106.65 50.07, 140.67 10.98 M61.94 101.54 C84.58 76.8, 105.99 52.52, 140.67 10.98 M69.29 105.28 C94.32 77.57, 118.18 52.59, 148.02 14.72 M69.29 105.28 C94.96 78.35, 117.84 48.94, 148.02 14.72 M76.64 109.02 C97.72 88.23, 114.11 65.74, 155.37 18.46 M76.64 109.02 C102.58 80.46, 128.06 49.67, 155.37 18.46 M83.99 112.76 C104.63 88.2, 128.24 62.86, 162.72 22.2 M83.99 112.76 C112.23 78.85, 140.24 45.45, 162.72 22.2 M91.34 116.5 C113.01 94.55, 132.25 71.86, 170.07 25.94 M91.34 116.5 C112.5 92.53, 133.72 67.69, 170.07 25.94 M98.69 120.24 C119.43 94.76, 144.28 69.46, 176.76 30.43 M98.69 120.24 C122.02 93.96, 143.34 67.96, 176.76 30.43 M106.04 123.98 C134.44 93.78, 161.2 61.16, 184.11 34.17 M106.04 123.98 C126.81 98.79, 149.15 72.76, 184.11 34.17 M113.39 127.72 C139.43 101.52, 161.71 69.65, 190.8 38.66 M113.39 127.72 C138.73 97.03, 165.09 67.34, 190.8 38.66 M122.05 129.95 C140.64 110.3, 156.49 88.48, 198.15 42.4 M122.05 129.95 C149.97 96.63, 177.8 63.53, 198.15 42.4 M135.96 126.14 C155.13 105.55, 171.72 84.73, 205.5 46.14 M135.96 126.14 C159.45 98.96, 181.65 74.39, 205.5 46.14 M153.81 117.8 C175.33 94.27, 195.3 69.18, 212.2 50.63 M153.81 117.8 C176.49 91.91, 197.71 67.31, 212.2 50.63 M174.28 106.45 C188.57 89.69, 204.63 70.89, 219.55 54.37 M174.28 106.45 C189.34 87.04, 205.89 68.11, 219.55 54.37 M194.09 95.85 C202.38 85.63, 210.77 77.87, 226.24 58.87 M194.09 95.85 C205.04 81.85, 216.85 69, 226.24 58.87 M213.91 85.25 C221.14 77.83, 224.67 70.35, 232.94 63.36 M213.91 85.25 C221.01 78, 225.61 72.62, 232.94 63.36 M13.23 74.71 C13.23 74.71, 13.23 74.71, 13.23 74.71 M13.23 74.71 C13.23 74.71, 13.23 74.71, 13.23 74.71 M44.89 91.64 C38.45 86.03, 27.13 78.79, 11.69 62.77 M44.89 91.64 C34.09 80.75, 22.39 71.38, 11.69 62.77 M75.8 107.9 C55.5 90.92, 30.57 69.45, 18.44 58.04 M75.8 107.9 C52.58 87.7, 30.5 69.12, 18.44 58.04 M105.96 123.52 C80.49 98.61, 52.84 77.47, 25.96 53.97 M105.96 123.52 C75.71 97.91, 44.96 71.21, 25.96 53.97 M124.79 129.29 C100.06 107.5, 75.81 83.91, 33.47 49.91 M124.79 129.29 C100.59 107.45, 76.61 86.75, 33.47 49.91 M133.81 126.53 C100.14 94.99, 67.1 65.79, 40.23 45.18 M133.81 126.53 C111.52 106.02, 87.75 84.91, 40.23 45.18 M142.08 123.12 C116.11 100.48, 90.94 78.74, 47.74 41.11 M142.08 123.12 C114.33 99.78, 87.7 76.32, 47.74 41.11 M149.59 119.05 C114.98 90.45, 81.76 59.69, 55.25 37.04 M149.59 119.05 C113.42 87.74, 76.91 57.28, 55.25 37.04 M157.1 114.98 C134.97 95.93, 111.65 75.56, 62.76 32.97 M157.1 114.98 C129.23 90.69, 102 66.85, 62.76 32.97 M164.62 110.91 C142.76 89.2, 119.57 69.1, 70.28 28.9 M164.62 110.91 C132.1 79.92, 97.43 50.49, 70.28 28.9 M172.13 106.84 C135.92 77.2, 103.2 45.58, 77.79 24.83 M172.13 106.84 C142.9 81.48, 113.17 57.18, 77.79 24.83 M179.64 102.77 C146.69 73.87, 114.19 48.6, 85.3 20.76 M179.64 102.77 C156.65 82.3, 133.16 59.91, 85.3 20.76 M187.15 98.7 C152.01 67.92, 116.02 37.73, 92.81 16.69 M187.15 98.7 C165.51 80.72, 144.02 61.72, 92.81 16.69 M194.67 94.63 C156.28 63.82, 117.79 30.62, 100.33 12.62 M194.67 94.63 C169.09 71.91, 144.58 49.37, 100.33 12.62 M202.18 90.56 C175.16 65.78, 146.42 42.06, 107.84 8.55 M202.18 90.56 C170.65 63.43, 140.01 35.72, 107.84 8.55 M209.69 86.49 C190.22 71.86, 171.23 52.89, 116.11 5.14 M209.69 86.49 C177.03 58.24, 145.26 29.19, 116.11 5.14 M217.2 82.42 C192.67 59.88, 169.47 40.84, 128.15 5.01 M217.2 82.42 C187.16 55.1, 157.14 28.91, 128.15 5.01 M224.72 78.35 C196.9 53.83, 172.82 33.09, 153.77 16.68 M224.72 78.35 C202.12 58.35, 179.7 38.32, 153.77 16.68 M230.72 72.97 C221.95 64.37, 209.81 52.4, 189.21 36.89 M230.72 72.97 C215.54 59.64, 199.54 45.28, 189.21 36.89 M235.21 66.28 C233.11 63.28, 228.19 59.57, 224.65 57.09 M235.21 66.28 C230.99 62.91, 227.18 58.97, 224.65 57.09" stroke="#ffec99" stroke-width="1" fill="none"></path><path d="M153.75 17 C175.7 27.61, 194.85 40.76, 213.25 51 M153.75 17 C176.24 31.16, 198.89 43.73, 213.25 51 M213.25 51 C244.1 69.28, 245.6 66.18, 213.25 85 M213.25 51 C242.43 66.24, 246.14 69.12, 213.25 85 M213.25 85 C195.54 93.63, 174.46 102.93, 153.75 117 M213.25 85 C194.01 94.24, 177.19 104, 153.75 117 M153.75 117 C122.46 132.3, 122.68 134.74, 92.25 117 M153.75 117 C123.8 136.18, 123.49 132.84, 92.25 117 M92.25 117 C76.87 110.52, 61.89 102.08, 30.75 85 M92.25 117 C67.97 104.86, 46.43 91.79, 30.75 85 M30.75 85 C0.75 66.25, -0.88 67.91, 30.75 51 M30.75 85 C-1.37 69.03, 1.01 66.84, 30.75 51 M30.75 51 C47.41 41.43, 68.62 31.31, 92.25 17 M30.75 51 C47.97 42.99, 64.02 32.94, 92.25 17 M92.25 17 C123.11 -1.92, 123.99 -0.1, 153.75 17 M92.25 17 C124.83 -1.9, 125.28 2.15, 153.75 17" stroke="#1e1e1e" stroke-width="2" fill="none"></path></g><g transform="translate(383 436) rotate(0 55 25)"><text x="55" y="17.52" font-family="Virgil, Segoe UI Emoji" font-size="20px" fill="#1e1e1e" text-anchor="middle" style="white-space: pre;" direction="ltr" dominant-baseline="alphabetic">Application </text><text x="55" y="42.519999999999996" font-family="Virgil, Segoe UI Emoji" font-size="20px" fill="#1e1e1e" text-anchor="middle" style="white-space: pre;" direction="ltr" dominant-baseline="alphabetic">server</text></g><g transform="translate(344 541) rotate(0 91.49999237060547 35)"><text x="0" y="24.528" font-family="Virgil, Segoe UI Emoji" font-size="28px" fill="#1e1e1e" text-anchor="start" style="white-space: pre;" direction="ltr" dominant-baseline="alphabetic">Optional for</text><text x="0" y="59.528" font-family="Virgil, Segoe UI Emoji" font-size="28px" fill="#1e1e1e" text-anchor="start" style="white-space: pre;" direction="ltr" dominant-baseline="alphabetic"> Auth &amp; TLS</text></g><g stroke-linecap="round" transform="translate(10 113) rotate(0 143 42.5)"><path d="M21.25 0 C81.79 1.14, 143.43 2.09, 264.75 0 M21.25 0 C89.51 -2.23, 160.09 -1.43, 264.75 0 M264.75 0 C277.27 -1.29, 285.3 6.24, 286 21.25 M264.75 0 C279.96 1.01, 285.25 7.47, 286 21.25 M286 21.25 C287.43 39.47, 286.25 55.07, 286 63.75 M286 21.25 C286.59 35.18, 287.25 48.78, 286 63.75 M286 63.75 C287.06 78.63, 280.72 83.85, 264.75 85 M286 63.75 C285.19 77.49, 277.64 84.59, 264.75 85 M264.75 85 C200.71 84.64, 133.11 85.04, 21.25 85 M264.75 85 C205.78 83.27, 147.15 84.19, 21.25 85 M21.25 85 C7.58 84.1, -1.38 77.48, 0 63.75 M21.25 85 C8.42 86.05, 0.87 77.63, 0 63.75 M0 63.75 C-0.23 46.95, -1.39 31.09, 0 21.25 M0 63.75 C-0.72 51.2, -0.51 39.57, 0 21.25 M0 21.25 C0.6 7.67, 8.82 -1.19, 21.25 0 M0 21.25 C2.15 6.7, 6.02 -0.42, 21.25 0" stroke="#1e1e1e" stroke-width="2" fill="none"></path></g><g transform="translate(46.5 118) rotate(0 106.5 37.5)"><text x="106.5" y="17.52" font-family="Virgil, Segoe UI Emoji" font-size="20px" fill="#1e1e1e" text-anchor="middle" style="white-space: pre;" direction="ltr" dominant-baseline="alphabetic">Prometheus</text><text x="106.5" y="42.519999999999996" font-family="Virgil, Segoe UI Emoji" font-size="20px" fill="#1e1e1e" text-anchor="middle" style="white-space: pre;" direction="ltr" dominant-baseline="alphabetic">/</text><text x="106.5" y="67.52" font-family="Virgil, Segoe UI Emoji" font-size="20px" fill="#1e1e1e" text-anchor="middle" style="white-space: pre;" direction="ltr" dominant-baseline="alphabetic">Grafana Agent | alloy</text></g><g stroke-linecap="round"><g transform="translate(147 200) rotate(0 89 130)"><path d="M0.02 0 C2.66 41.36, -12.94 205.59, 16.87 249.08 C46.68 292.58, 151.98 259.23, 178.88 260.97 M-1.43 -1.04 C1.47 40.36, -11.01 206.77, 18.99 250.14 C48.99 293.5, 151.96 257.44, 178.58 259.14" stroke="#1e1e1e" stroke-width="2" fill="none"></path></g><g transform="translate(147 200) rotate(0 89 130)"><path d="M156.45 270.77 C164.91 264.39, 171.93 263.25, 178.58 259.14 M156.45 270.77 C165.66 266.82, 172.48 261.43, 178.58 259.14" stroke="#1e1e1e" stroke-width="2" fill="none"></path></g><g transform="translate(147 200) rotate(0 89 130)"><path d="M154.15 253.82 C163.63 253.99, 171.53 259.4, 178.58 259.14 M154.15 253.82 C164.28 256.34, 171.98 257.41, 178.58 259.14" stroke="#1e1e1e" stroke-width="2" fill="none"></path></g></g><mask></mask><g stroke-linecap="round"><g transform="translate(549 465) rotate(0 88.5 -2)"><path d="M0.08 0.59 C29.83 0.02, 148.6 -3.23, 177.98 -3.81 M-1.34 -0.15 C28.39 -0.45, 148.11 -1.42, 177.54 -2.17" stroke="#1e1e1e" stroke-width="2" fill="none"></path></g><g transform="translate(549 465) rotate(0 88.5 -2)"><path d="M154.18 6.74 C161.17 6.07, 166.48 1.09, 177.54 -2.17 M154.18 6.74 C162.99 2.23, 171.79 -0.43, 177.54 -2.17" stroke="#1e1e1e" stroke-width="2" fill="none"></path></g><g transform="translate(549 465) rotate(0 88.5 -2)"><path d="M153.92 -10.36 C160.91 -6.66, 166.29 -7.26, 177.54 -2.17 M153.92 -10.36 C162.81 -8.16, 171.71 -4.1, 177.54 -2.17" stroke="#1e1e1e" stroke-width="2" fill="none"></path></g></g><mask></mask><g transform="translate(852 10) rotate(0 147.49996948242188 22.5)"><text x="0" y="31.536" font-family="Virgil, Segoe UI Emoji" font-size="36px" fill="#1e1e1e" text-anchor="start" style="white-space: pre;" direction="ltr" dominant-baseline="alphabetic">Barman exporter</text></g><g stroke-linecap="round"><g transform="translate(1656.0000000000002 129.19174265374818) rotate(0 86.11174697739 60.4903607582977)"><path d="M-0.21 0.85 C24.67 4.23, 121.67 0.7, 150.48 20.53 C179.28 40.36, 169.13 103.09, 172.62 119.85 M-1.78 0.25 C22.88 3.26, 120.8 -1.27, 149.78 18.79 C178.75 38.84, 168.48 103.32, 172.06 120.57" stroke="#1e1e1e" stroke-width="2" fill="none"></path></g><g transform="translate(1656.0000000000002 129.19174265374818) rotate(0 86.11174697739 60.4903607582977)"><path d="M162.69 97.4 C167.88 107.42, 171.4 116.51, 172.06 120.57 M162.69 97.4 C165.23 102.31, 165.57 106.22, 172.06 120.57" stroke="#1e1e1e" stroke-width="2" fill="none"></path></g><g transform="translate(1656.0000000000002 129.19174265374818) rotate(0 86.11174697739 60.4903607582977)"><path d="M179.78 96.79 C178.18 107.03, 174.9 116.36, 172.06 120.57 M179.78 96.79 C178.8 101.84, 175.62 105.88, 172.06 120.57" stroke="#1e1e1e" stroke-width="2" fill="none"></path></g></g><mask></mask><g stroke-linecap="round" transform="translate(1096 102) rotate(0 94 40)"><path d="M20 0 C61.88 2, 103.61 0.27, 168 0 M20 0 C64.5 1, 109.64 0.67, 168 0 M168 0 C179.78 0.39, 189.75 4.77, 188 20 M168 0 C182.76 0.64, 186.32 5.38, 188 20 M188 20 C186.23 32.07, 188.92 43.38, 188 60 M188 20 C187.21 33.87, 188.46 45.19, 188 60 M188 60 C189.32 72.77, 180.85 79.56, 168 80 M188 60 C185.86 72.21, 180.47 82.12, 168 80 M168 80 C121.63 80.01, 80.06 81.47, 20 80 M168 80 C117.94 78.53, 67.21 79.97, 20 80 M20 80 C6.14 78.07, -1.45 73.33, 0 60 M20 80 C8.52 81.12, 1.44 75.39, 0 60 M0 60 C0.61 48.14, 0.05 38.33, 0 20 M0 60 C-0.22 49.06, 1.09 36.91, 0 20 M0 20 C-0.66 5.6, 5.21 -0.42, 20 0 M0 20 C-0.04 5.23, 7.69 2.14, 20 0" stroke="#1e1e1e" stroke-width="2" fill="none"></path></g><g transform="translate(1112.5 129.5) rotate(0 77.5 12.5)"><text x="77.5" y="17.52" font-family="Virgil, Segoe UI Emoji" font-size="20px" fill="#1e1e1e" text-anchor="middle" style="white-space: pre;" direction="ltr" dominant-baseline="alphabetic">Shell integration</text></g><g stroke-linecap="round"><g transform="translate(1287 136.54490689148315) rotate(0 70.00000000000006 0.5893101165102621)"><path d="M0.53 0.87 C23.84 0.91, 115.56 0.55, 138.88 0.75 M-0.65 0.27 C23.1 0.45, 117.57 2.07, 141 2.07" stroke="#1e1e1e" stroke-width="2" fill="none"></path></g><g transform="translate(1287 136.54490689148315) rotate(0 70.00000000000006 0.5893101165102621)"><path d="M117.42 10.39 C123.99 6.59, 126.99 7.38, 141 2.07 M117.42 10.39 C125.49 7.48, 136.09 4.06, 141 2.07" stroke="#1e1e1e" stroke-width="2" fill="none"></path></g><g transform="translate(1287 136.54490689148315) rotate(0 70.00000000000006 0.5893101165102621)"><path d="M117.59 -6.71 C124.18 -6.77, 127.15 -2.24, 141 2.07 M117.59 -6.71 C125.59 -3.17, 136.12 -0.14, 141 2.07" stroke="#1e1e1e" stroke-width="2" fill="none"></path></g></g><mask></mask><g stroke-linecap="round" transform="translate(1100 261) rotate(0 94 40)"><path d="M20 0 C52.69 -2.95, 80.85 -1.48, 168 0 M20 0 C61.59 -1.24, 105.46 -0.66, 168 0 M168 0 C179.64 1.67, 189.05 5.17, 188 20 M168 0 C180.81 1.63, 190.01 5.79, 188 20 M188 20 C185.84 33.89, 188.95 43.38, 188 60 M188 20 C187.52 36.21, 187.84 49.96, 188 60 M188 60 C189.7 74.91, 182.3 78.2, 168 80 M188 60 C185.92 75.3, 179.85 79.13, 168 80 M168 80 C122.38 78.44, 78.63 78.39, 20 80 M168 80 C117.72 80.58, 66.96 79.65, 20 80 M20 80 C7.54 79.16, -0.75 72.24, 0 60 M20 80 C7.13 78.04, -1.21 74.34, 0 60 M0 60 C0.39 46.04, 0.97 30.72, 0 20 M0 60 C0.35 44.53, 0.27 28.01, 0 20 M0 20 C0.18 4.77, 4.96 0.47, 20 0 M0 20 C1.45 4.97, 7.62 -1.88, 20 0" stroke="#1e1e1e" stroke-width="2" fill="none"></path></g><g transform="translate(1139.5 288.5) rotate(0 54.5 12.5)"><text x="54.5" y="17.52" font-family="Virgil, Segoe UI Emoji" font-size="20px" fill="#1e1e1e" text-anchor="middle" style="white-space: pre;" direction="ltr" dominant-baseline="alphabetic">Integration</text></g><g stroke-linecap="round" transform="translate(955 424) rotate(0 94 40)"><path d="M20 0 C77.7 1.43, 134.72 1.07, 168 0 M20 0 C68.71 -2.36, 119.39 -0.7, 168 0 M168 0 C179.39 0.05, 186.43 7.93, 188 20 M168 0 C181.85 -1.48, 188.53 5.96, 188 20 M188 20 C187.97 31.72, 189.27 39.53, 188 60 M188 20 C187.48 29.06, 188.73 38.98, 188 60 M188 60 C189.2 72.94, 180.57 78.91, 168 80 M188 60 C186.17 73.49, 180.28 79.98, 168 80 M168 80 C110.48 82.63, 53.51 83.07, 20 80 M168 80 C136.24 80.06, 104.6 79.45, 20 80 M20 80 C7.55 80.13, 1.76 73.65, 0 60 M20 80 C5.26 81.38, 0.2 72.48, 0 60 M0 60 C-1.71 43.04, -0.83 27.17, 0 20 M0 60 C0.55 48.55, -0.07 38.51, 0 20 M0 20 C-1.82 7.97, 5.41 1.7, 20 0 M0 20 C0.67 8.95, 6.3 0.66, 20 0" stroke="#1e1e1e" stroke-width="2" fill="none"></path></g><g transform="translate(981.5 451.5) rotate(0 67.5 12.5)"><text x="67.5" y="17.52" font-family="Virgil, Segoe UI Emoji" font-size="20px" fill="#1e1e1e" text-anchor="middle" style="white-space: pre;" direction="ltr" dominant-baseline="alphabetic">OTEL metrics</text></g><g stroke-linecap="round" transform="translate(695 250) rotate(0 94 40)"><path d="M20 0 C54 -1.11, 88.66 -2.39, 168 0 M20 0 C50.82 -0.5, 80.95 -0.96, 168 0 M168 0 C180.82 -1.12, 189.01 4.81, 188 20 M168 0 C181.83 -0.59, 187.25 8.08, 188 20 M188 20 C187.61 31.86, 186.58 43.48, 188 60 M188 20 C188.48 34.61, 188.76 47.38, 188 60 M188 60 C186.68 71.59, 182.29 80.64, 168 80 M188 60 C187.47 73.42, 179.8 79.92, 168 80 M168 80 C132.65 78.2, 101.87 77.56, 20 80 M168 80 C120.18 78.51, 71.54 79.06, 20 80 M20 80 C4.67 80.65, -1.32 73.87, 0 60 M20 80 C4.9 78.43, 0.09 75.04, 0 60 M0 60 C-0.04 43.63, 1.98 28.43, 0 20 M0 60 C0.42 47.63, 0.84 35.05, 0 20 M0 20 C-0.15 5.75, 8.54 -0.24, 20 0 M0 20 C0.92 8.24, 8.67 -0.28, 20 0" stroke="#1e1e1e" stroke-width="2" fill="none"></path></g><g transform="translate(753.5 277.5) rotate(0 35.5 12.5)"><text x="35.5" y="17.52" font-family="Virgil, Segoe UI Emoji" font-size="20px" fill="#1e1e1e" text-anchor="middle" style="white-space: pre;" direction="ltr" dominant-baseline="alphabetic">Metrics</text></g><g stroke-linecap="round"><g transform="translate(907 463) rotate(0 26 -1)"><path d="M1.15 0.76 C9.71 0.29, 43.89 -1.47, 52.29 -1.96 M0.29 0.12 C8.64 -0.23, 43.12 -0.22, 51.49 -0.4" stroke="#1e1e1e" stroke-width="2" fill="none"></path></g><g transform="translate(907 463) rotate(0 26 -1)"><path d="M28.08 8.38 C38.15 5.31, 45.8 0.69, 51.49 -0.4 M28.08 8.38 C34.89 5.78, 40.97 3.91, 51.49 -0.4" stroke="#1e1e1e" stroke-width="2" fill="none"></path></g><g transform="translate(907 463) rotate(0 26 -1)"><path d="M27.92 -8.72 C38.17 -5.32, 45.89 -3.47, 51.49 -0.4 M27.92 -8.72 C34.92 -6.46, 41.05 -3.46, 51.49 -0.4" stroke="#1e1e1e" stroke-width="2" fill="none"></path></g></g><mask></mask><g stroke-linecap="round"><g transform="translate(884 299.1480706048161) rotate(0 106.99999999999997 0.7376073412468713)"><path d="M-0.43 1.18 C35.08 1.25, 178.38 1.49, 213.94 1.48 M1.54 0.76 C36.81 1.55, 177.33 2.78, 212.95 3.02" stroke="#1e1e1e" stroke-width="2" fill="none"></path></g><g transform="translate(884 299.1480706048161) rotate(0 106.99999999999997 0.7376073412468713)"><path d="M189.39 11.38 C200.07 8.24, 206.88 3.44, 212.95 3.02 M189.39 11.38 C195.84 9.53, 202.03 6.55, 212.95 3.02" stroke="#1e1e1e" stroke-width="2" fill="none"></path></g><g transform="translate(884 299.1480706048161) rotate(0 106.99999999999997 0.7376073412468713)"><path d="M189.53 -5.72 C200.31 -2.49, 207.07 -0.92, 212.95 3.02 M189.53 -5.72 C196 -3.01, 202.15 -1.41, 212.95 3.02" stroke="#1e1e1e" stroke-width="2" fill="none"></path></g></g><mask></mask><g stroke-linecap="round" transform="translate(948 217) rotate(0 55.5 20)"><path d="M10 0 C40.84 -0.14, 71.94 -2.05, 101 0 M10 0 C34.29 -0.37, 56.31 0.29, 101 0 M101 0 C107.28 1.59, 109.35 2.46, 111 10 M101 0 C106.43 -1.28, 112.69 1.33, 111 10 M111 10 C110.97 16.11, 112.26 25.41, 111 30 M111 10 C111.67 13.41, 111.47 18.35, 111 30 M111 30 C110.12 35.91, 106.98 41.39, 101 40 M111 30 C109.77 36.01, 106.5 41.79, 101 40 M101 40 C78.31 39.6, 52.24 42.41, 10 40 M101 40 C71.54 39.66, 42.64 40.39, 10 40 M10 40 C3.9 41.33, -1.41 37.05, 0 30 M10 40 C1.9 38.18, -1.33 37.33, 0 30 M0 30 C0.08 26.78, -0.48 18.62, 0 10 M0 30 C-0.21 22.16, 0.79 14.3, 0 10 M0 10 C1.59 3.86, 2.69 1.4, 10 0 M0 10 C2 4.7, 2.37 0.07, 10 0" stroke="#1e1e1e" stroke-width="2" fill="none"></path></g><g transform="translate(971 227) rotate(0 32.5 10)"><text x="32.5" y="14.016" font-family="Virgil, Segoe UI Emoji" font-size="16px" fill="#1e1e1e" text-anchor="middle" style="white-space: pre;" direction="ltr" dominant-baseline="alphabetic">Outputs</text></g><g stroke-linecap="round"><g transform="translate(1193.260852917296 260) rotate(0 -0.8400999151506312 -38.5)"><path d="M-1.08 0.79 C-1.58 -11.82, -2.56 -63.14, -2.83 -76.24 M0.55 0.16 C0.4 -12.74, -0.57 -65.11, -0.72 -77.96" stroke="#1e1e1e" stroke-width="2" fill="none"></path></g><g transform="translate(1193.260852917296 260) rotate(0 -0.8400999151506312 -38.5)"><path d="M8.2 -54.6 C6.84 -63.89, 4.01 -70.98, -0.72 -77.96 M8.2 -54.6 C5.7 -59.15, 3.71 -64.66, -0.72 -77.96" stroke="#1e1e1e" stroke-width="2" fill="none"></path></g><g transform="translate(1193.260852917296 260) rotate(0 -0.8400999151506312 -38.5)"><path d="M-8.9 -54.34 C-4.92 -63.55, -2.41 -70.72, -0.72 -77.96 M-8.9 -54.34 C-7.41 -58.88, -5.41 -64.45, -0.72 -77.96" stroke="#1e1e1e" stroke-width="2" fill="none"></path></g></g><mask></mask><g stroke-linecap="round"><g transform="translate(1099 270.4536895969238) rotate(0 -104.49999999999997 -0.9926851059951218)"><path d="M-0.11 -0.33 C-34.74 -0.64, -174.1 -2.48, -208.87 -2.83 M-1.63 -1.55 C-36.32 -1.64, -175.12 -1.77, -209.76 -1.74" stroke="#1e1e1e" stroke-width="2" fill="none"></path></g><g transform="translate(1099 270.4536895969238) rotate(0 -104.49999999999997 -0.9926851059951218)"><path d="M-186.26 -10.29 C-191.84 -8.29, -197.66 -6.31, -209.76 -1.74 M-186.26 -10.29 C-191.73 -8.35, -198.99 -6.42, -209.76 -1.74" stroke="#1e1e1e" stroke-width="2" fill="none"></path></g><g transform="translate(1099 270.4536895969238) rotate(0 -104.49999999999997 -0.9926851059951218)"><path d="M-186.26 6.81 C-191.7 5.2, -197.52 3.57, -209.76 -1.74 M-186.26 6.81 C-191.61 4.25, -198.88 1.68, -209.76 -1.74" stroke="#1e1e1e" stroke-width="2" fill="none"></path></g></g><mask></mask><g mask="url(#mask-SfU6v-_WgdHASCqm3PgO1)" stroke-linecap="round"><g transform="translate(870 320) rotate(0 49 51)"><path d="M-0.65 -0.16 C15.62 16.7, 80.6 83.88, 96.98 101.1 M1.22 -1.29 C17.89 15.71, 83.24 85.05, 99.16 102.17" stroke="#1e1e1e" stroke-width="2" fill="none"></path></g><g transform="translate(870 320) rotate(0 49 51)"><path d="M76.85 90.88 C82.16 92.13, 86.51 96.08, 99.16 102.17 M76.85 90.88 C86.47 95.92, 95.32 100.62, 99.16 102.17" stroke="#1e1e1e" stroke-width="2" fill="none"></path></g><g transform="translate(870 320) rotate(0 49 51)"><path d="M89.33 79.18 C91.5 83.29, 92.74 90.17, 99.16 102.17 M89.33 79.18 C93.93 88.9, 97.84 98.22, 99.16 102.17" stroke="#1e1e1e" stroke-width="2" fill="none"></path></g></g><mask id="mask-SfU6v-_WgdHASCqm3PgO1"><rect x="0" y="0" fill="#fff" width="1068" height="522"></rect><rect x="886" y="361" fill="#000" width="66" height="20" opacity="1"></rect></mask><g transform="translate(886 361) rotate(0 33.255661050709904 9.439485043073034)"><text x="33" y="14.016" font-family="Virgil, Segoe UI Emoji" font-size="16px" fill="#1e1e1e" text-anchor="middle" style="white-space: pre;" direction="ltr" dominant-baseline="alphabetic">Updates</text></g><g stroke-linecap="round"><g transform="translate(703 256) rotate(0 5 -28.5)"><path d="M-1.13 0.36 C-2.94 -9.01, -14.32 -45.67, -11.78 -55.18 C-9.24 -64.69, 8.5 -64.94, 14.12 -56.71 C19.74 -48.47, 20.74 -14.26, 21.96 -5.78 M0.47 -0.5 C-0.86 -9.24, -12.16 -45.14, -9.48 -54.26 C-6.8 -63.38, 11.19 -63.43, 16.55 -55.24 C21.91 -47.04, 22.11 -13.31, 22.71 -5.09" stroke="#1e1e1e" stroke-width="2" fill="none"></path></g><g transform="translate(703 256) rotate(0 5 -28.5)"><path d="M13.11 -28.17 C16.02 -24.29, 15.58 -19.37, 22.71 -5.09 M13.11 -28.17 C16.74 -21.33, 19.74 -13.09, 22.71 -5.09" stroke="#1e1e1e" stroke-width="2" fill="none"></path></g><g transform="translate(703 256) rotate(0 5 -28.5)"><path d="M30.19 -28.94 C29.34 -25.05, 25.13 -19.96, 22.71 -5.09 M30.19 -28.94 C28.29 -21.96, 25.75 -13.47, 22.71 -5.09" stroke="#1e1e1e" stroke-width="2" fill="none"></path></g></g><mask></mask><g transform="translate(691.125 161) rotate(0 59.375 12.5)"><text x="0" y="17.52" font-family="Virgil, Segoe UI Emoji" font-size="20px" fill="#1e1e1e" text-anchor="start" style="white-space: pre;" direction="ltr" dominant-baseline="alphabetic">Update loop</text></g></svg>